<svg xmlns="http://www.w3.org/2000/svg" viewBox="0 0 240 240" role="img" aria-label="enneagram-2">
  <circle cx="120" cy="120" r="112" fill="hsl(340, 50%, 93%)"/>
  <ellipse cx="95" cy="207" rx="15" ry="8" fill="hsl(340, 55%, 40%)"/>
  <ellipse cx="145" cy="207" rx="15" ry="8" fill="hsl(340, 55%, 40%)"/>
  <g fill="hsl(340, 62%, 56%)"><ellipse cx="120" cy="140" rx="70" ry="66"/></g>
  <circle cx="82" cy="144" r="8" fill="#fff" opacity="0.3"/>
  <circle cx="158" cy="144" r="8" fill="#fff" opacity="0.3"/>
  
    <circle cx="96" cy="126" r="6.5" fill="#33304A"/><circle cx="144" cy="126" r="6.5" fill="#33304A"/>
    <path d="M112 152 Q120 158 128 152" stroke="#33304A" stroke-width="4.5" fill="none" stroke-linecap="round"/>
  
    <g transform="translate(120 174)"><path d="M0 6 C0 0 -12 -2 -12 6 C-12 12 0 18 0 18 C0 18 12 12 12 6 C12 -2 0 0 0 6 Z" fill="#F0648C"/></g>
</svg>
