<svg xmlns="http://www.w3.org/2000/svg" viewBox="0 0 240 240" role="img" aria-label="enneagram-6">
  <circle cx="120" cy="120" r="112" fill="hsl(215, 50%, 93%)"/>
  <ellipse cx="95" cy="205" rx="15" ry="8" fill="hsl(215, 55%, 40%)"/>
  <ellipse cx="145" cy="205" rx="15" ry="8" fill="hsl(215, 55%, 40%)"/>
  <g fill="hsl(215, 62%, 56%)"><rect x="54" y="78" width="132" height="126" rx="42"/></g>
  <circle cx="82" cy="144" r="8" fill="#fff" opacity="0.3"/>
  <circle cx="158" cy="144" r="8" fill="#fff" opacity="0.3"/>
  
    <rect x="88" y="123" width="16" height="5" rx="2.5" fill="#33304A"/>
    <rect x="136" y="123" width="16" height="5" rx="2.5" fill="#33304A"/>
    <path d="M110 152 Q120 160 130 152" stroke="#33304A" stroke-width="5" fill="none" stroke-linecap="round"/>
  
    <g transform="translate(120 172)">
      <path d="M0 -14 L15 -8 L15 4 Q15 16 0 23 Q-15 16 -15 4 L-15 -8 Z" fill="hsl(215, 55%, 40%)"/>
      <path d="M-5 1 L-1 6 L6 -4" stroke="#fff" stroke-width="4" fill="none" stroke-linecap="round" stroke-linejoin="round"/>
    </g>
</svg>
