<svg xmlns="http://www.w3.org/2000/svg" viewBox="0 0 240 240" role="img" aria-label="mbti-enfj">
  <circle cx="120" cy="120" r="112" fill="hsl(168, 50%, 93%)"/>
  <ellipse cx="95" cy="213" rx="15" ry="8" fill="hsl(168, 55%, 40%)"/>
  <ellipse cx="145" cy="213" rx="15" ry="8" fill="hsl(168, 55%, 40%)"/>
  <g fill="hsl(168, 62%, 56%)"><ellipse cx="120" cy="138" rx="60" ry="74"/></g>
  <circle cx="82" cy="144" r="8" fill="#fff" opacity="0.3"/>
  <circle cx="158" cy="144" r="8" fill="#fff" opacity="0.3"/>
  
    <path d="M86 129 Q96 119 106 129" stroke="#33304A" stroke-width="5" fill="none" stroke-linecap="round"/>
    <path d="M134 129 Q144 119 154 129" stroke="#33304A" stroke-width="5" fill="none" stroke-linecap="round"/>
    <path d="M106 148 Q120 166 134 148 Z" fill="#33304A"/>
  
    <g transform="translate(120 180)"><path d="M0 6 C0 0 -12 -2 -12 6 C-12 12 0 18 0 18 C0 18 12 12 12 6 C12 -2 0 0 0 6 Z" fill="#F0648C"/></g>
</svg>
