<svg xmlns="http://www.w3.org/2000/svg" viewBox="0 0 240 240" role="img" aria-label="mbti-enfp">
  <circle cx="120" cy="120" r="112" fill="hsl(135, 50%, 93%)"/>
  <ellipse cx="95" cy="207" rx="15" ry="8" fill="hsl(135, 55%, 40%)"/>
  <ellipse cx="145" cy="207" rx="15" ry="8" fill="hsl(135, 55%, 40%)"/>
  <g fill="hsl(135, 62%, 56%)"><ellipse cx="120" cy="140" rx="70" ry="66"/></g>
  <circle cx="82" cy="144" r="8" fill="#fff" opacity="0.3"/>
  <circle cx="158" cy="144" r="8" fill="#fff" opacity="0.3"/>
  
    <path d="M86 126 Q96 132 106 126" stroke="#33304A" stroke-width="5" fill="none" stroke-linecap="round"/>
    <circle cx="144" cy="126" r="7.5" fill="#33304A"/>
    <path d="M106 148 Q120 162 134 148" stroke="#33304A" stroke-width="5" fill="none" stroke-linecap="round"/>
    <ellipse cx="127" cy="157" rx="6" ry="4" fill="#F0648C"/>
  
    <g transform="translate(154 82)"><path d="M0.0 -13.0L3.2 -4.4L12.4 -4.0L5.2 1.7L7.6 10.5L0.0 5.5L-7.6 10.5L-5.2 1.7L-12.4 -4.0L-3.2 -4.4Z" fill="#F6C445"/></g>
</svg>
