<svg xmlns="http://www.w3.org/2000/svg" viewBox="0 0 240 240" role="img" aria-label="mbti-istj">
  <circle cx="120" cy="120" r="112" fill="hsl(220, 50%, 93%)"/>
  <ellipse cx="95" cy="205" rx="15" ry="8" fill="hsl(220, 55%, 40%)"/>
  <ellipse cx="145" cy="205" rx="15" ry="8" fill="hsl(220, 55%, 40%)"/>
  <g fill="hsl(220, 62%, 56%)"><rect x="54" y="78" width="132" height="126" rx="42"/></g>
  <circle cx="82" cy="144" r="8" fill="#fff" opacity="0.3"/>
  <circle cx="158" cy="144" r="8" fill="#fff" opacity="0.3"/>
  
    <rect x="88" y="123" width="16" height="5" rx="2.5" fill="#33304A"/>
    <rect x="136" y="123" width="16" height="5" rx="2.5" fill="#33304A"/>
    <path d="M110 152 Q120 160 130 152" stroke="#33304A" stroke-width="5" fill="none" stroke-linecap="round"/>
  
    <g transform="translate(120 168)">
      <path d="M-14 -2 L0 4 L-4 -6 Z" fill="#fff" opacity="0.9"/>
      <path d="M14 -2 L0 4 L4 -6 Z" fill="#fff" opacity="0.9"/>
      <rect x="-5" y="2" width="10" height="7" rx="2" fill="hsl(220, 55%, 40%)"/>
      <path d="M-5 9 L5 9 L3 24 L0 28 L-3 24 Z" fill="hsl(220, 55%, 40%)"/>
    </g>
</svg>
